<?xml version="1.0" standalone="no"?>
<!DOCTYPE svg PUBLIC "-//W3C//DTD SVG 20010904//EN"
 "http://www.w3.org/TR/2001/REC-SVG-20010904/DTD/svg10.dtd">
<svg version="1.0" xmlns="http://www.w3.org/2000/svg"
 width="350.000000pt" height="417.000000pt" viewBox="0 0 350.000000 417.000000"
 preserveAspectRatio="xMidYMid meet">

<g transform="translate(0.000000,417.000000) scale(0.100000,-0.100000)"
fill="#000000" stroke="none">
<path d="M1616 4111 c-31 -17 -72 -42 -91 -57 -19 -14 -35 -24 -35 -21 0 3 20
20 45 38 25 18 43 34 41 36 -2 3 -28 -7 -58 -22 -39 -19 -47 -21 -29 -7 l25
20 -54 16 c-29 9 -65 16 -80 16 -92 0 -218 -78 -345 -212 -139 -146 -245 -328
-310 -530 -45 -139 -45 -155 3 -100 20 23 40 42 45 42 4 0 7 -23 7 -52 0 -28
7 -81 16 -116 10 -38 14 -85 11 -116 -6 -66 9 -188 25 -197 9 -6 7 -10 -7 -15
-40 -15 -95 -68 -116 -111 -19 -40 -25 -98 -17 -174 1 -10 30 -30 72 -50 83
-39 143 -44 175 -15 18 16 21 17 21 3 0 -8 -14 -27 -31 -41 -51 -44 -144 -34
-194 20 -14 15 -25 22 -25 16 0 -19 101 -101 138 -112 20 -5 63 -10 94 -10 45
0 63 -5 78 -20 11 -11 22 -20 25 -20 7 0 -23 59 -48 92 -16 21 -18 35 -12 65
4 21 7 45 8 54 1 13 5 14 18 6 10 -6 15 -15 12 -20 -3 -5 3 -7 13 -5 18 3 19
13 15 126 -2 79 0 122 7 122 6 0 17 2 25 5 11 5 17 -23 32 -142 24 -201 27
-204 193 -177 17 3 32 8 32 12 0 4 -24 21 -52 37 -114 66 -140 114 -98 183 21
34 74 72 102 72 16 0 15 -3 -3 -35 -42 -70 -20 -142 54 -178 33 -17 42 -17 79
-5 51 16 88 65 88 117 l1 36 24 -28 c32 -36 34 -92 3 -124 l-21 -23 24 0 c13
0 40 -3 60 -6 30 -5 41 -1 71 25 47 41 74 122 59 179 -15 55 -64 118 -110 142
-40 20 -61 40 -42 40 14 0 82 91 75 101 -3 5 -53 10 -112 10 -59 1 -98 3 -87
6 11 2 29 8 40 13 59 27 296 87 425 109 38 6 104 30 162 58 l98 47 26 -20 c15
-11 64 -89 110 -174 147 -271 139 -247 136 -387 -2 -100 0 -123 11 -123 24 0
40 29 48 86 7 55 56 134 83 134 27 0 106 -81 117 -120 7 -22 16 -37 20 -34 12
7 11 87 0 117 -12 30 -69 67 -105 67 -25 0 -26 1 -13 33 11 26 20 33 51 37 35
5 39 9 71 80 19 42 40 109 47 150 7 43 22 89 35 108 50 75 39 180 -31 317
-108 210 -232 302 -361 267 -53 -14 -68 -2 -60 49 6 36 5 38 -44 66 -37 20
-61 44 -87 86 -39 60 -55 67 -108 47 -21 -8 -30 -5 -52 15 -32 30 -85 33 -142
10 -48 -21 -76 -13 -101 29 -46 74 -120 87 -215 37z m-156 -55 c0 -2 -7 -7
-16 -10 -8 -3 -12 -2 -9 4 6 10 25 14 25 6z m-280 -1149 c0 -2 -15 -16 -32
-33 l-33 -29 29 33 c28 30 36 37 36 29z m280 -137 c22 -11 40 -23 40 -25 0 -3
-17 3 -37 13 -21 11 -45 22 -53 25 -10 4 -11 6 -2 6 7 1 31 -8 52 -19z m-243
-8 c-15 -10 -34 -27 -43 -38 -14 -18 -14 -17 -3 6 18 39 30 50 53 50 19 0 19
-2 -7 -18z"/>
<path d="M1846 2992 c-10 -16 61 -99 95 -111 18 -6 79 -11 136 -11 89 0 117
-4 193 -30 103 -35 110 -36 110 -14 0 20 -113 128 -155 148 -36 17 -370 33
-379 18z"/>
<path d="M2005 2841 c-59 -26 -85 -92 -85 -212 0 -58 3 -69 26 -93 15 -14 31
-26 37 -26 5 0 -2 9 -17 21 -38 30 -37 92 3 139 l29 35 -5 -45 c-13 -120 134
-181 211 -89 36 42 36 106 1 147 -32 39 -32 42 8 31 57 -16 79 -32 109 -84
l30 -50 -6 39 c-14 105 -125 158 -259 124 -47 -12 -55 -12 -46 -1 6 7 8 13 3
13 -5 0 18 16 51 35 l60 35 -55 0 c-32 0 -72 -8 -95 -19z m160 -111 c-3 -5
-11 -10 -16 -10 -6 0 -7 5 -4 10 3 6 11 10 16 10 6 0 7 -4 4 -10z"/>
<path d="M2515 2370 c-7 -12 88 -12 125 0 18 6 4 8 -47 9 -39 1 -75 -3 -78 -9z"/>
<path d="M1050 2306 c0 -2 8 -10 18 -17 15 -13 16 -12 3 4 -13 16 -21 21 -21
13z"/>
<path d="M1629 2301 c-1 -6 -1 -20 -1 -31 0 -54 3 -61 37 -77 29 -14 40 -15
77 -4 45 14 78 37 78 55 0 6 -37 20 -83 30 -45 10 -88 23 -94 29 -9 6 -13 6
-14 -2z"/>
<path d="M1202 2225 c-7 -14 -12 -33 -12 -41 0 -8 -7 -26 -16 -39 -15 -22 -14
-28 2 -72 10 -26 30 -65 46 -85 16 -20 25 -39 21 -41 -5 -3 -28 -8 -53 -12
-153 -25 -239 -79 -265 -167 -8 -28 -30 -69 -48 -92 -79 -96 -116 -183 -120
-284 -2 -44 2 -55 27 -81 16 -17 28 -33 25 -35 -2 -2 -32 -18 -66 -35 -95 -47
-225 -127 -255 -156 -54 -51 -211 -302 -269 -431 -47 -106 -106 -284 -150
-452 -21 -84 -39 -158 -39 -165 0 -9 87 -12 383 -12 l382 0 11 80 10 80 8 -50
c17 -112 16 -110 74 -110 29 1 436 2 906 3 l854 2 7 43 c18 116 18 117 30 32
l10 -80 382 0 c292 0 383 3 383 12 0 23 -69 279 -105 393 -21 63 -54 154 -75
201 -61 141 -218 398 -278 454 -30 29 -160 109 -255 156 -34 17 -64 33 -66 35
-3 2 7 17 21 32 35 38 38 53 27 124 -13 80 -48 158 -105 230 -25 32 -51 79
-59 106 -26 87 -88 128 -244 162 l-86 19 -23 -21 c-12 -12 -32 -23 -44 -25
-12 -2 -46 -15 -77 -28 -59 -26 -238 -75 -276 -75 -50 0 -115 33 -171 86 -31
30 -82 67 -111 82 -56 26 -103 72 -103 98 0 20 13 18 93 -18 70 -32 77 -33
202 -33 117 0 137 3 195 27 36 14 74 29 85 33 17 7 18 9 3 12 -9 2 -40 -8 -70
-23 -42 -22 -70 -28 -138 -32 -77 -3 -89 -1 -130 22 -70 40 -106 55 -173 72
-34 9 -69 22 -78 30 -27 24 -172 94 -194 94 -14 0 -26 -10 -33 -25z m892 -472
l7 -61 -80 -31 c-43 -17 -98 -33 -122 -35 -24 -3 -36 -3 -26 0 9 3 17 9 17 13
0 5 43 43 95 86 52 43 95 83 95 88 0 29 8 -6 14 -60z"/>
<path d="M1658 1973 c7 -3 16 -2 19 1 4 3 -2 6 -13 5 -11 0 -14 -3 -6 -6z"/>
</g>
</svg>
